# xmcd
#
# Track frame offsets: 
#        150
#        11953
#        26150
#        45482
#        60160
#        76233
#        89266
#        104690
#        119342
#        131577
#        145716
#        158293
#
# Disc length: 2257 seconds
#
# Revision: 0
# Processed by: cddbd v1.5.2PL0 Copyright (c) Steve Scherf et al.
# Submitted via: ExactAudioCopyFreeDBPlugin 1.0
#
DISCID=9008cf0c
DTITLE=Chase and Melissa Johner - It's Not Fair
DYEAR=2014
DGENRE=Bluegrass
TTITLE0=Highway 11
TTITLE1=Amy
TTITLE2=Granddaddy
TTITLE3=What About You
TTITLE4=Panhandle Rag
TTITLE5=It's Not Fair
TTITLE6=Complain
TTITLE7=Silent Strings
TTITLE8=Kettlefoot
TTITLE9=Ginseng Sullivan
TTITLE10=My God Is Here
TTITLE11=East Virginia Blues
EXTD=
EXTT0=
EXTT1=
EXTT2=
EXTT3=
EXTT4=
EXTT5=
EXTT6=
EXTT7=
EXTT8=
EXTT9=
EXTT10=
EXTT11=
PLAYORDER=
